<svg width="64" height="71" viewBox="0 0 64 71" fill="none" xmlns="http://www.w3.org/2000/svg">
<rect y="7" width="64" height="64" fill="#3C4FFF"/>
<path d="M22.144 37.928C22.144 38.504 22.16 39.112 22.192 39.752C22.224 40.36 22.32 40.744 22.48 40.904C22.704 41.128 23.488 41.24 24.832 41.24L26.464 41.192C26.752 42.728 26.896 44.504 26.896 46.52C26.288 46.744 25.392 46.952 24.208 47.144C23.056 47.336 21.952 47.432 20.896 47.432C18.688 47.432 16.976 46.952 15.76 45.992C14.576 45 13.984 43.48 13.984 41.432V29.624H10.384V25.256L13.984 24.92L16.144 19.64L22.144 19.304V24.92H27.232V29.624H22.144V37.928Z" fill="white"/>
<path d="M41.8 39.44C44.296 39.44 46.216 40.192 47.56 41.696C48.936 43.2 49.624 45.856 49.624 49.664C49.624 52.448 49.336 54.832 48.76 56.816C48.216 58.768 47.592 60.016 46.888 60.56C46.056 61.232 44.824 61.728 43.192 62.048C41.56 62.368 39.704 62.528 37.624 62.528C36.024 62.528 34.232 62.4 32.248 62.144C30.264 61.92 28.488 61.552 26.92 61.04V33.2L35.224 32.864V37.376C35.224 37.632 35.208 38.224 35.176 39.152C35.176 40.08 35.144 40.864 35.08 41.504C35.016 42.112 34.92 42.576 34.792 42.896L35.08 43.232C35.816 42.112 36.744 41.2 37.864 40.496C38.984 39.792 40.296 39.44 41.8 39.44ZM40.456 56.768C40.648 56.448 40.808 55.696 40.936 54.512C41.096 53.328 41.176 52.192 41.176 51.104C41.176 49.824 41.112 48.816 40.984 48.08C40.888 47.344 40.616 46.768 40.168 46.352C39.752 45.904 39.096 45.68 38.2 45.68C37.4 45.68 36.376 45.792 35.128 46.016V56.864C36.312 57.056 37.544 57.152 38.824 57.152C39.752 57.152 40.296 57.024 40.456 56.768Z" fill="white"/>
</svg>
