<svg width="273" height="73" viewBox="0 0 273 73" fill="none" xmlns="http://www.w3.org/2000/svg">
<path d="M91.4205 30.8182V36.9545H74.9034V30.8182H91.4205ZM78.3636 24.5455H86.6989V48.767C86.6989 49.2784 86.7784 49.6932 86.9375 50.0114C87.108 50.3182 87.3523 50.5398 87.6705 50.6761C87.9886 50.8011 88.3693 50.8636 88.8125 50.8636C89.1307 50.8636 89.4659 50.8352 89.8182 50.7784C90.1818 50.7102 90.4545 50.6534 90.6364 50.608L91.8977 56.625C91.5 56.7386 90.9375 56.8807 90.2102 57.0511C89.4943 57.2216 88.6364 57.3295 87.6364 57.375C85.6818 57.4659 84.0057 57.2386 82.608 56.6932C81.2216 56.1364 80.1591 55.2727 79.4205 54.1023C78.6932 52.9318 78.3409 51.4602 78.3636 49.6875V24.5455ZM91.1133 57V30.8182H99.2099V35.5909H99.4826C99.9599 33.8636 100.738 32.5795 101.818 31.7386C102.897 30.8864 104.153 30.4602 105.585 30.4602C105.971 30.4602 106.369 30.4886 106.778 30.5455C107.187 30.5909 107.568 30.6648 107.92 30.767V38.0114C107.522 37.875 107 37.767 106.352 37.6875C105.716 37.608 105.147 37.5682 104.647 37.5682C103.659 37.5682 102.767 37.7898 101.971 38.233C101.187 38.6648 100.568 39.2727 100.113 40.0568C99.6701 40.8295 99.4485 41.7386 99.4485 42.7841V57H91.1133ZM123.648 45.6989V30.8182H131.967V57H124.023V52.125H123.751C123.171 53.7273 122.183 55 120.785 55.9432C119.398 56.875 117.722 57.3409 115.756 57.3409C113.972 57.3409 112.404 56.9318 111.052 56.1136C109.7 55.2955 108.648 54.1534 107.898 52.6875C107.148 51.2102 106.768 49.483 106.756 47.5057V30.8182H115.092V45.8693C115.103 47.2898 115.478 48.4091 116.217 49.2273C116.955 50.0455 117.961 50.4545 119.234 50.4545C120.063 50.4545 120.808 50.2727 121.467 49.9091C122.137 49.5341 122.666 48.9943 123.052 48.2898C123.45 47.5739 123.648 46.7102 123.648 45.6989ZM144.951 57.4943C142.212 57.4943 139.848 56.9545 137.86 55.875C135.882 54.7841 134.36 53.233 133.292 51.2216C132.235 49.1989 131.706 46.7955 131.706 44.0114C131.706 41.3068 132.24 38.9432 133.309 36.9205C134.377 34.8864 135.882 33.3068 137.826 32.1818C139.769 31.0455 142.059 30.4773 144.695 30.4773C146.559 30.4773 148.263 30.767 149.809 31.3466C151.354 31.9261 152.689 32.7841 153.814 33.9205C154.939 35.0568 155.814 36.4602 156.439 38.1307C157.064 39.7898 157.377 41.6932 157.377 43.8409V45.9205H134.621V41.0795H149.621C149.61 40.1932 149.4 39.4034 148.99 38.7102C148.581 38.017 148.019 37.4773 147.303 37.0909C146.598 36.6932 145.786 36.4943 144.865 36.4943C143.934 36.4943 143.098 36.7045 142.36 37.125C141.621 37.5341 141.036 38.0966 140.604 38.8125C140.172 39.517 139.945 40.3182 139.922 41.2159V46.142C139.922 47.2102 140.132 48.1477 140.553 48.9545C140.973 49.75 141.57 50.3693 142.343 50.8125C143.115 51.2557 144.036 51.4773 145.104 51.4773C145.843 51.4773 146.513 51.375 147.115 51.1705C147.718 50.9659 148.235 50.6648 148.667 50.267C149.098 49.8693 149.422 49.3807 149.638 48.8011L157.292 49.0227C156.973 50.7386 156.275 52.233 155.195 53.5057C154.127 54.767 152.723 55.75 150.985 56.4545C149.246 57.1477 147.235 57.4943 144.951 57.4943ZM157.074 57V22.0909H165.409V35.3011H165.58C165.921 34.5057 166.403 33.7386 167.028 33C167.665 32.2614 168.472 31.6591 169.449 31.1932C170.438 30.7159 171.619 30.4773 172.994 30.4773C174.813 30.4773 176.511 30.9545 178.091 31.9091C179.682 32.8636 180.966 34.3352 181.943 36.3239C182.921 38.3125 183.409 40.8466 183.409 43.9261C183.409 46.892 182.938 49.375 181.994 51.375C181.063 53.375 179.801 54.875 178.21 55.875C176.631 56.875 174.875 57.375 172.943 57.375C171.625 57.375 170.483 57.1591 169.517 56.7273C168.551 56.2955 167.739 55.7273 167.08 55.0227C166.432 54.3182 165.932 53.5625 165.58 52.7557H165.324V57H157.074ZM165.239 43.9091C165.239 45.3182 165.426 46.5455 165.801 47.5909C166.188 48.6364 166.739 49.4489 167.455 50.0284C168.182 50.5966 169.051 50.8807 170.063 50.8807C171.085 50.8807 171.955 50.5966 172.671 50.0284C173.386 49.4489 173.926 48.6364 174.29 47.5909C174.665 46.5455 174.852 45.3182 174.852 43.9091C174.852 42.5 174.665 41.2784 174.29 40.2443C173.926 39.2102 173.386 38.4091 172.671 37.8409C171.966 37.2727 171.097 36.9886 170.063 36.9886C169.04 36.9886 168.171 37.267 167.455 37.8239C166.739 38.3807 166.188 39.1761 165.801 40.2102C165.426 41.2443 165.239 42.4773 165.239 43.9091ZM195.439 57.4943C192.689 57.4943 190.325 56.9318 188.348 55.8068C186.382 54.6705 184.865 53.0909 183.797 51.0682C182.74 49.0341 182.211 46.6761 182.211 43.9943C182.211 41.3011 182.74 38.9432 183.797 36.9205C184.865 34.8864 186.382 33.3068 188.348 32.1818C190.325 31.0455 192.689 30.4773 195.439 30.4773C198.189 30.4773 200.547 31.0455 202.512 32.1818C204.49 33.3068 206.007 34.8864 207.064 36.9205C208.132 38.9432 208.666 41.3011 208.666 43.9943C208.666 46.6761 208.132 49.0341 207.064 51.0682C206.007 53.0909 204.49 54.6705 202.512 55.8068C200.547 56.9318 198.189 57.4943 195.439 57.4943ZM195.49 51.2045C196.49 51.2045 197.336 50.8977 198.03 50.2841C198.723 49.6705 199.251 48.8182 199.615 47.7273C199.99 46.6364 200.177 45.375 200.177 43.9432C200.177 42.4886 199.99 41.2159 199.615 40.125C199.251 39.0341 198.723 38.1818 198.03 37.5682C197.336 36.9545 196.49 36.6477 195.49 36.6477C194.456 36.6477 193.581 36.9545 192.865 37.5682C192.16 38.1818 191.62 39.0341 191.245 40.125C190.882 41.2159 190.7 42.4886 190.7 43.9432C190.7 45.375 190.882 46.6364 191.245 47.7273C191.62 48.8182 192.16 49.6705 192.865 50.2841C193.581 50.8977 194.456 51.2045 195.49 51.2045ZM216.711 42.0682V57H208.376V30.8182H216.302V35.625H216.592C217.171 34.0227 218.16 32.767 219.558 31.858C220.955 30.9375 222.62 30.4773 224.552 30.4773C226.393 30.4773 227.989 30.892 229.342 31.7216C230.705 32.5398 231.762 33.6875 232.512 35.1648C233.274 36.6307 233.649 38.3466 233.637 40.3125V57H225.302V41.9489C225.313 40.4943 224.944 39.358 224.194 38.5398C223.455 37.7216 222.427 37.3125 221.109 37.3125C220.234 37.3125 219.461 37.5057 218.791 37.892C218.131 38.267 217.62 38.8068 217.256 39.5114C216.904 40.2159 216.722 41.0682 216.711 42.0682ZM243.8 57.375C241.868 57.375 240.113 56.875 238.533 55.875C236.954 54.875 235.692 53.375 234.749 51.375C233.806 49.375 233.334 46.892 233.334 43.9261C233.334 40.8466 233.823 38.3125 234.8 36.3239C235.777 34.3352 237.056 32.8636 238.635 31.9091C240.226 30.9545 241.937 30.4773 243.766 30.4773C245.141 30.4773 246.317 30.7159 247.294 31.1932C248.272 31.6591 249.079 32.2614 249.715 33C250.351 33.7386 250.834 34.5057 251.164 35.3011H251.334V22.0909H259.669V57H251.419V52.7557H251.164C250.812 53.5625 250.312 54.3182 249.664 55.0227C249.016 55.7273 248.204 56.2955 247.226 56.7273C246.26 57.1591 245.118 57.375 243.8 57.375ZM246.698 50.8807C247.709 50.8807 248.573 50.5966 249.289 50.0284C250.005 49.4489 250.556 48.6364 250.942 47.5909C251.329 46.5455 251.522 45.3182 251.522 43.9091C251.522 42.4773 251.329 41.2443 250.942 40.2102C250.567 39.1761 250.016 38.3807 249.289 37.8239C248.573 37.267 247.709 36.9886 246.698 36.9886C245.664 36.9886 244.789 37.2727 244.073 37.8409C243.357 38.4091 242.812 39.2102 242.437 40.2443C242.073 41.2784 241.891 42.5 241.891 43.9091C241.891 45.3182 242.079 46.5455 242.454 47.5909C242.829 48.6364 243.368 49.4489 244.073 50.0284C244.789 50.5966 245.664 50.8807 246.698 50.8807Z" fill="black"/>
<rect y="9" width="64" height="64" fill="#3C4FFF"/>
<path d="M22.144 37.928C22.144 38.504 22.16 39.112 22.192 39.752C22.224 40.36 22.32 40.744 22.48 40.904C22.704 41.128 23.488 41.24 24.832 41.24L26.464 41.192C26.752 42.728 26.896 44.504 26.896 46.52C26.288 46.744 25.392 46.952 24.208 47.144C23.056 47.336 21.952 47.432 20.896 47.432C18.688 47.432 16.976 46.952 15.76 45.992C14.576 45 13.984 43.48 13.984 41.432V29.624H10.384V25.256L13.984 24.92L16.144 19.64L22.144 19.304V24.92H27.232V29.624H22.144V37.928Z" fill="white"/>
<path d="M41.8 39.44C44.296 39.44 46.216 40.192 47.56 41.696C48.936 43.2 49.624 45.856 49.624 49.664C49.624 52.448 49.336 54.832 48.76 56.816C48.216 58.768 47.592 60.016 46.888 60.56C46.056 61.232 44.824 61.728 43.192 62.048C41.56 62.368 39.704 62.528 37.624 62.528C36.024 62.528 34.232 62.4 32.248 62.144C30.264 61.92 28.488 61.552 26.92 61.04V33.2L35.224 32.864V37.376C35.224 37.632 35.208 38.224 35.176 39.152C35.176 40.08 35.144 40.864 35.08 41.504C35.016 42.112 34.92 42.576 34.792 42.896L35.08 43.232C35.816 42.112 36.744 41.2 37.864 40.496C38.984 39.792 40.296 39.44 41.8 39.44ZM40.456 56.768C40.648 56.448 40.808 55.696 40.936 54.512C41.096 53.328 41.176 52.192 41.176 51.104C41.176 49.824 41.112 48.816 40.984 48.08C40.888 47.344 40.616 46.768 40.168 46.352C39.752 45.904 39.096 45.68 38.2 45.68C37.4 45.68 36.376 45.792 35.128 46.016V56.864C36.312 57.056 37.544 57.152 38.824 57.152C39.752 57.152 40.296 57.024 40.456 56.768Z" fill="white"/>
</svg>
